<svg width="100" height="98" viewBox="0 0 100 98" fill="none" xmlns="http://www.w3.org/2000/svg">
<path d="M17.7083 0H82.2917C92.0833 0 100 7.91667 100 17.7083V79.7917C100 89.5833 92.0833 97.5 82.2917 97.5H17.7083C7.91667 97.5 0 89.5833 0 79.7917V17.7083C0 7.91667 7.91667 0 17.7083 0Z" fill="#330000"/>
<path d="M48.4582 58.4997H32.9582L29.7916 68.2913C29.7082 68.6663 29.3749 68.9163 28.9999 68.8747H21.1666C20.7082 68.8747 20.5832 68.6247 20.7082 68.1247L34.1249 29.4997C34.2499 29.083 34.3749 28.6247 34.5416 28.1247C34.7082 27.2497 34.7916 26.333 34.7916 25.4163C34.7499 25.208 34.9166 24.9997 35.1249 24.958C35.1666 24.958 35.2082 24.958 35.2499 24.958H45.9166C46.2499 24.958 46.4166 25.083 46.4582 25.2913L61.6666 68.208C61.7916 68.6663 61.6666 68.8747 61.2499 68.8747H52.5416C52.2499 68.9163 51.9582 68.708 51.8749 68.4163L48.4582 58.4997ZM35.3749 50.0413H45.9582C45.7082 49.1663 45.3749 48.1247 44.9999 47.0413C44.6249 45.9163 44.2499 44.708 43.8749 43.458C43.4582 42.1663 43.0832 40.9163 42.6666 39.6247C42.2499 38.333 41.8749 37.1247 41.5416 35.9163C41.2082 34.7497 40.9166 33.6663 40.6249 32.6663H40.5416C40.1666 34.458 39.7082 36.2497 39.1249 38.0413C38.4999 40.0413 37.8749 42.1247 37.2082 44.208C36.6249 46.333 35.9999 48.2913 35.3749 50.0413Z" fill="#FF9A00"/>
<path d="M70.75 32.0833C69.375 32.125 68.0416 31.5833 67.0416 30.625C66.0833 29.5833 65.5833 28.2083 65.625 26.7917C65.5833 25.375 66.125 24.0417 67.125 23.0833C68.125 22.125 69.4583 21.625 70.8333 21.625C72.4583 21.625 73.7083 22.125 74.625 23.0833C75.5416 24.0833 76.0416 25.4167 76 26.7917C76.0416 28.2083 75.5416 29.5833 74.5416 30.625C73.5833 31.625 72.1666 32.1667 70.75 32.0833ZM66.0833 68.25V36.1667C66.0833 35.75 66.25 35.5833 66.625 35.5833H74.875C75.25 35.5833 75.4166 35.7917 75.4166 36.1667V68.25C75.4166 68.7083 75.25 68.9167 74.875 68.9167H66.7083C66.2916 68.9167 66.0833 68.6667 66.0833 68.25Z" fill="#FF9A00"/>
</svg>
