<svg width="100" height="100" viewBox="0 0 100 100" fill="none" xmlns="http://www.w3.org/2000/svg">
<path d="M46.2064 0H62.5478V74.898C54.1774 76.4812 48.0154 77.1042 41.3483 77.1042C21.3895 77.0833 11 68.1667 11 51.0417C11 34.5417 22.0204 23.8333 39.0979 23.8333C41.7479 23.8333 43.7668 24.0418 46.2064 24.6666V0ZM46.779 38.1641C44.8651 37.539 43.288 37.3307 41.2688 37.3307C33.0037 37.3307 28.2296 42.3723 28.2296 51.2076C28.2296 59.8098 32.7936 64.5597 41.1639 64.5597C42.9724 64.5597 44.4446 64.4579 46.779 64.1453V38.1641Z" fill="#2BA977"/>
<path d="M89.2704 25.8441V63.3445C89.2704 76.2589 88.303 82.4693 85.4637 87.8237C82.8137 92.9714 79.3226 96.2174 72.1089 99.8026L56.9453 92.657C64.159 89.3045 67.6501 86.3422 69.8796 81.8215C72.2138 77.1987 72.9499 71.8443 72.9499 57.761V25.8444H89.2704V25.8441ZM71.3031 0H87.6445V16.6042H71.3031V0Z" fill="#2BA977"/>
</svg>
