<svg width="100" height="100" viewBox="0 0 100 100" fill="none" xmlns="http://www.w3.org/2000/svg">
<path d="M33.3332 100C42.5332 100 49.9998 92.5336 49.9998 83.3336V66.667H33.3332C24.1332 66.667 16.6665 74.1336 16.6665 83.3336C16.6665 92.5336 24.1332 100 33.3332 100Z" fill="#0ACF83"/>
<path d="M16.6665 49.9996C16.6665 40.7997 24.1332 33.333 33.3332 33.333H49.9998V66.6663H33.3332C24.1332 66.6663 16.6665 59.1996 16.6665 49.9996Z" fill="#A259FF"/>
<path d="M16.6665 16.6667C16.6665 7.46666 24.1332 0 33.3332 0H49.9998V33.3333H33.3332C24.1332 33.3333 16.6665 25.8667 16.6665 16.6667Z" fill="#F24E1E"/>
<path d="M50 0H66.6667C75.8667 0 83.3334 7.46666 83.3334 16.6667C83.3334 25.8667 75.8667 33.3333 66.6667 33.3333H50V0Z" fill="#FF7262"/>
<path d="M83.3334 49.9996C83.3334 59.1996 75.8667 66.6663 66.6667 66.6663C57.4667 66.6663 50 59.1996 50 49.9996C50 40.7997 57.4667 33.333 66.6667 33.333C75.8667 33.333 83.3334 40.7997 83.3334 49.9996Z" fill="#1ABCFE"/>
</svg>
