<svg width="32" height="32" viewBox="0 0 32 32" fill="none" xmlns="http://www.w3.org/2000/svg">
<path d="M15.8879 0.52533C7.98998 0.52533 8.48311 3.95035 8.48311 3.95035L8.49188 7.49877H16.0288V8.5641H5.49836C5.49836 8.5641 0.444458 7.99093 0.444458 15.9599C0.444458 23.9291 4.85563 23.6465 4.85563 23.6465H7.48819V19.9485C7.48819 19.9485 7.34627 15.5373 11.8289 15.5373H19.3042C19.3042 15.5373 23.504 15.6052 23.504 11.4783V4.65484C23.504 4.65484 24.1418 0.52533 15.8879 0.52533ZM11.7321 2.91157C11.9102 2.91141 12.0866 2.94637 12.2512 3.01446C12.4157 3.08254 12.5653 3.18241 12.6912 3.30834C12.8171 3.43428 12.917 3.58381 12.9851 3.74839C13.0532 3.91296 13.0881 4.08935 13.088 4.26745C13.0881 4.44555 13.0532 4.62193 12.9851 4.78651C12.917 4.95108 12.8171 5.10062 12.6912 5.22656C12.5653 5.35249 12.4157 5.45236 12.2512 5.52044C12.0866 5.58852 11.9102 5.62348 11.7321 5.62332C11.554 5.62348 11.3776 5.58852 11.213 5.52044C11.0485 5.45236 10.8989 5.35249 10.773 5.22656C10.6471 5.10062 10.5472 4.95108 10.4791 4.78651C10.411 4.62193 10.3761 4.44555 10.3762 4.26745C10.3761 4.08935 10.411 3.91296 10.4791 3.74839C10.5472 3.58381 10.6471 3.43428 10.773 3.30834C10.8989 3.18241 11.0485 3.08254 11.213 3.01446C11.3776 2.94637 11.554 2.91141 11.7321 2.91157Z" fill="#0891B2"/>
<path d="M16.1122 31.4747C24.0102 31.4747 23.517 28.0496 23.517 28.0496L23.5083 24.5013H15.9713V23.436H26.5017C26.5017 23.436 31.5556 24.0092 31.5556 16.04C31.5556 8.07085 27.1444 8.35347 27.1444 8.35347H24.5118V12.0514C24.5118 12.0514 24.6538 16.4626 20.1711 16.4626H12.6959C12.6959 16.4626 8.49604 16.3947 8.49604 20.5217V27.3453C8.49604 27.3453 7.85831 31.4747 16.1121 31.4747H16.1122ZM20.2681 29.0887C20.0899 29.0888 19.9136 29.0539 19.749 28.9858C19.5844 28.9177 19.4349 28.8178 19.3089 28.6919C19.183 28.566 19.0831 28.4164 19.0151 28.2518C18.947 28.0873 18.912 27.9109 18.9122 27.7328C18.912 27.5547 18.9469 27.3783 19.015 27.2137C19.0831 27.0491 19.183 26.8995 19.3089 26.7736C19.4348 26.6476 19.5844 26.5478 19.749 26.4797C19.9135 26.4116 20.0899 26.3766 20.2681 26.3768C20.4462 26.3766 20.6225 26.4116 20.7871 26.4797C20.9517 26.5477 21.1012 26.6476 21.2272 26.7736C21.3531 26.8995 21.453 27.049 21.521 27.2136C21.5891 27.3782 21.6241 27.5546 21.6239 27.7327C21.6241 27.9108 21.5891 28.0871 21.521 28.2517C21.453 28.4163 21.3531 28.5658 21.2272 28.6918C21.1012 28.8177 20.9517 28.9176 20.7871 28.9857C20.6225 29.0537 20.4462 29.0887 20.2681 29.0885V29.0887Z" fill="#FACC15"/>
</svg>
